<svg width="800" height="450" viewBox="0 0 800 450" xmlns="http://www.w3.org/2000/svg">
  <defs>
    <linearGradient id="maybachBusinessBg" x1="0%" y1="0%" x2="100%" y2="0%">
      <stop offset="0%" style="stop-color:#2c3e50;stop-opacity:1" />
      <stop offset="100%" style="stop-color:#34495e;stop-opacity:1" />
    </linearGradient>
    <radialGradient id="businessMaybachLight" cx="30%" cy="40%" r="50%">
      <stop offset="0%" style="stop-color:#ffffff;stop-opacity:0.9" />
      <stop offset="100%" style="stop-color:#f39c12;stop-opacity:0.2" />
    </radialGradient>
    <radialGradient id="maybachStarlightBusiness" cx="50%" cy="45%" r="95%">
      <stop offset="0%" style="stop-color:#ffffff;stop-opacity:0.98" />
      <stop offset="25%" style="stop-color:#4a90e2;stop-opacity:0.8" />
      <stop offset="50%" style="stop-color:#9b59b6;stop-opacity:0.6" />
      <stop offset="100%" style="stop-color:#2c3e50;stop-opacity:0.2" />
    </radialGradient>
  </defs>
  
  <!-- Business Maybach district background -->
  <rect width="800" height="450" fill="url(#maybachBusinessBg)"/>
  
  <!-- Modern office buildings -->
  <rect x="0" y="80" width="180" height="370" fill="#2c3e50" opacity="0.6"/>
  <rect x="220" y="60" width="160" height="390" fill="#34495e" opacity="0.7"/>
  <rect x="420" y="100" width="140" height="350" fill="#2c3e50" opacity="0.6"/>
  <rect x="620" y="70" width="180" height="380" fill="#34495e" opacity="0.7"/>
  
  <!-- Office windows -->
  <rect x="20" y="120" width="30" height="40" fill="#ffffff" opacity="0.8"/>
  <rect x="70" y="120" width="30" height="40" fill="#ffffff" opacity="0.8"/>
  <rect x="120" y="120" width="30" height="40" fill="#ffffff" opacity="0.8"/>
  <rect x="240" y="100" width="25" height="35" fill="#00d4ff" opacity="0.7"/>
  <rect x="280" y="100" width="25" height="35" fill="#00d4ff" opacity="0.7"/>
  <rect x="320" y="100" width="25" height="35" fill="#00d4ff" opacity="0.7"/>
  
  <!-- Business Maybach -->
  <path d="M130 300 Q160 210 250 210 L550 210 Q670 210 670 300 L690 370 L650 430 L150 430 L110 370 Z" fill="#000000" stroke="#4a90e2" stroke-width="6"/>
  <path d="M150 230 Q180 180 290 180 L510 180 Q670 180 670 230 L660 300 L150 300 Z" fill="url(#maybachStarlightBusiness)" stroke="#9b59b6" stroke-width="4"/>
  
  <!-- Business Maybach professional chauffeur -->
  <rect x="330" y="200" width="70" height="90" fill="#2c3e50" rx="35"/>
  <circle cx="365" cy="190" r="22" fill="#34495e"/>
  
  <!-- Office building lighting -->
  <circle cx="200" cy="180" r="35" fill="url(#businessMaybachLight)" opacity="0.5"/>
  
  <!-- Ultra-premium Maybach wheels -->
  <circle cx="210" cy="430" r="45" fill="#2c3e50" stroke="#7f8c8d" stroke-width="6"/>
  <circle cx="590" cy="430" r="45" fill="#2c3e50" stroke="#7f8c8d" stroke-width="6"/>
  <circle cx="210" cy="430" r="27" fill="#34495e"/>
  <circle cx="590" cy="430" r="27" fill="#34495e"/>
  
  <!-- Executive Maybach headlights -->
  <ellipse cx="630" cy="270" rx="18" ry="10" fill="#ffffff" opacity="0.9"/>
  <ellipse cx="190" cy="270" rx="15" ry="8" fill="#ff6b35" opacity="0.8"/>
  
  <!-- Starlight LED strips -->
  <rect x="610" y="260" width="40" height="4" fill="#ffffff" opacity="0.8"/>
  <rect x="165" y="260" width="32" height="4" fill="#ff6b35" opacity="0.8"/>
  
  <!-- Ground reflection -->
  <ellipse cx="400" cy="430" rx="300" ry="20" fill="#4a90e2" opacity="0.1"/>
  
  <!-- Business VIP service elements -->
  <rect x="350" y="330" width="100" height="35" fill="#9b59b6" opacity="0.4" rx="8"/>
  <text x="400" y="355" font-family="Arial" font-size="14" fill="#ffffff" text-anchor="middle">VIP EXECUTIVE</text>
  
  <!-- SEO Alt Text: Futuristic Mercedes Maybach ultra-luxury minivan business transfer with galaxy starlight ceiling and premium executive chauffeur -->
</svg>