<svg width="800" height="450" viewBox="0 0 800 450" xmlns="http://www.w3.org/2000/svg">
  <defs>
    <linearGradient id="maybachInterior" x1="0%" y1="0%" x2="0%" y2="100%">
      <stop offset="0%" style="stop-color:#000000;stop-opacity:1" />
      <stop offset="40%" style="stop-color:#0a0a0a;stop-opacity:1" />
      <stop offset="100%" style="stop-color:#1a1a2e;stop-opacity:1" />
    </linearGradient>
    <radialGradient id="galaxyStarlight" cx="50%" cy="25%" r="100%">
      <stop offset="0%" style="stop-color:#ffffff;stop-opacity:0.99" />
      <stop offset="10%" style="stop-color:#f39c12;stop-opacity:0.9" />
      <stop offset="20%" style="stop-color:#9b59b6;stop-opacity:0.8" />
      <stop offset="35%" style="stop-color:#8e44ad;stop-opacity:0.7" />
      <stop offset="50%" style="stop-color:#4a90e2;stop-opacity:0.5" />
      <stop offset="75%" style="stop-color:#2c3e50;stop-opacity:0.3" />
      <stop offset="100%" style="stop-color:#1a1a2e;stop-opacity:0.1" />
    </radialGradient>
    <linearGradient id="maybachLeather" x1="0%" y1="0%" x2="100%" y2="0%">
      <stop offset="0%" style="stop-color:#1a1a1a;stop-opacity:1" />
      <stop offset="50%" style="stop-color:#2c1810;stop-opacity:1" />
      <stop offset="100%" style="stop-color:#4a2c1a;stop-opacity:1" />
    </linearGradient>
    <filter id="maybachInteriorGlow">
      <feGaussianBlur stdDeviation="10" result="coloredBlur"/>
      <feMerge> 
        <feMergeNode in="coloredBlur"/>
        <feMergeNode in="SourceGraphic"/>
      </feMerge>
    </filter>
  </defs>
  
  <!-- Ultra-luxury Maybach interior background -->
  <rect width="800" height="450" fill="url(#maybachInterior)"/>
  
  <!-- Galaxy starlight ceiling -->
  <path d="M0 150 Q400 100 800 150 L780 180 Q400 130 20 180 Z" fill="url(#galaxyStarlight)" opacity="0.9" filter="url(#maybachInteriorGlow)"/>
  
  <!-- Individual galaxy stars -->
  <circle cx="100" cy="120" r="2" fill="#ffffff" opacity="0.95"/>
  <circle cx="150" cy="115" r="1.5" fill="#f39c12" opacity="0.9"/>
  <circle cx="200" cy="125" r="2.5" fill="#9b59b6" opacity="0.85"/>
  <circle cx="250" cy="118" r="1" fill="#ffffff" opacity="0.92"/>
  <circle cx="300" cy="122" r="1.8" fill="#8e44ad" opacity="0.8"/>
  <circle cx="350" cy="116" r="2.2" fill="#ffffff" opacity="0.88"/>
  <circle cx="400" cy="120" r="1.5" fill="#4a90e2" opacity="0.82"/>
  <circle cx="450" cy="124" r="2" fill="#f39c12" opacity="0.9"/>
  <circle cx="500" cy="117" r="1.3" fill="#ffffff" opacity="0.94"/>
  <circle cx="550" cy="121" r="2.3" fill="#9b59b6" opacity="0.87"/>
  <circle cx="600" cy="115" r="1.7" fill="#8e44ad" opacity="0.78"/>
  <circle cx="650" cy="119" r="2.1" fill="#ffffff" opacity="0.91"/>
  <circle cx="700" cy="123" r="1.4" fill="#4a90e2" opacity="0.84"/>
  
  <!-- Large ultra-premium center console with TV -->
  <rect x="150" y="180" width="500" height="200" fill="#000000" stroke="#f39c12" stroke-width="5" rx="25" filter="url(#maybachInteriorGlow)"/>
  <rect x="180" y="210" width="440" height="140" fill="#0a0a0a" opacity="0.9"/>
  
  <!-- Premium TV screen -->
  <rect x="200" y="230" width="400" height="100" fill="#1a1a2e" stroke="#9b59b6" stroke-width="3" rx="15"/>
  <text x="400" y="285" font-family="Arial" font-size="24" fill="#9b59b6" text-anchor="middle">ULTRA HD TV</text>
  
  <!-- Ultra-premium digital instrument cluster -->
  <rect x="50" y="180" width="240" height="110" fill="#000000" stroke="#8e44ad" stroke-width="4" rx="15"/>
  <text x="170" y="235" font-family="Arial" font-size="20" fill="#f39c12" text-anchor="middle">MAYBACH</text>
  <text x="170" y="265" font-family="Arial" font-size="16" fill="#9b59b6" text-anchor="middle">Galaxy Edition</text>
  
  <!-- Ultra-premium first-class leather seats -->
  <path d="M60 320 Q80 300 160 300 L300 300 Q320 310 320 360 L300 420 L60 420 Z" fill="url(#maybachLeather)" stroke="#f39c12" stroke-width="4"/>
  <path d="M480 320 Q500 300 620 300 L740 300 Q760 310 760 360 L740 420 L480 420 Z" fill="url(#maybachLeather)" stroke="#f39c12" stroke-width="4"/>
  
  <!-- VIP rear executive seats with galaxy view -->
  <path d="M160 420 Q200 400 350 400 L450 400 Q600 420 580 470 L180 470 Z" fill="url(#maybachLeather)" stroke="#9b59b6" stroke-width="3"/>
  
  <!-- Mini bar area -->
  <rect x="320" y="350" width="160" height="60" fill="#2c1810" stroke="#8e44ad" stroke-width="3" rx="10"/>
  <rect x="340" y="365" width="40" height="30" fill="#34495e" rx="5"/>
  <rect x="390" y="365" width="40" height="30" fill="#34495e" rx="5"/>
  <rect x="440" y="365" width="40" height="30" fill="#34495e" rx="5"/>
  <text x="400" y="390" font-family="Arial" font-size="12" fill="#f39c12" text-anchor="middle">MINIBAR</text>
  
  <!-- Premium ambient RGB galaxy LED lighting -->
  <rect x="0" y="320" width="800" height="8" fill="#f39c12" opacity="0.9" filter="url(#maybachInteriorGlow)"/>
  <rect x="0" y="420" width="800" height="6" fill="#9b59b6" opacity="0.8"/>
  <rect x="0" y="470" width="800" height="4" fill="#8e44ad" opacity="0.7"/>
  
  <!-- VIP door panels with ultra-premium LED -->
  <rect x="40" y="320" width="20" height="110" fill="#f39c12" opacity="0.8"/>
  <rect x="740" y="320" width="20" height="110" fill="#f39c12" opacity="0.8"/>
  
  <!-- Premium USB, wireless charging, and champagne holders -->
  <circle cx="100" cy="360" r="6" fill="#f39c12"/>
  <circle cx="140" cy="360" r="6" fill="#9b59b6"/>
  <circle cx="660" cy="360" r="6" fill="#f39c12"/>
  <circle cx="620" cy="360" r="6" fill="#9b59b6"/>
  <circle cx="280" y="360" r="6" fill="#8e44ad"/>
  <circle cx="520" cy="360" r="6" fill="#8e44ad"/>
  
  <!-- Ultra-premium seat stitching -->
  <line x1="70" y1="320" x2="310" y2="320" stroke="#f39c12" stroke-width="4" opacity="0.8"/>
  <line x1="490" y1="320" x2="730" y2="320" stroke="#f39c12" stroke-width="4" opacity="0.8"/>
  <line x1="180" y1="420" x2="580" y2="420" stroke="#9b59b6" stroke-width="3" opacity="0.7"/>
  
  <!-- SEO Alt Text: Futuristic Mercedes Maybach ultra-luxury interior with galaxy starlight ceiling TV minibar and first-class leather seats -->
</svg>