<svg width="800" height="450" viewBox="0 0 800 450" xmlns="http://www.w3.org/2000/svg">
  <defs>
    <linearGradient id="vitoBusinessBg" x1="0%" y1="0%" x2="100%" y2="0%">
      <stop offset="0%" style="stop-color:#2c3e50;stop-opacity:1" />
      <stop offset="100%" style="stop-color:#34495e;stop-opacity:1" />
    </linearGradient>
    <radialGradient id="businessVitoLight" cx="30%" cy="40%" r="50%">
      <stop offset="0%" style="stop-color:#ffffff;stop-opacity:0.9" />
      <stop offset="100%" style="stop-color:#4a90e2;stop-opacity:0.2" />
    </radialGradient>
  </defs>
  
  <!-- Business district background -->
  <rect width="800" height="450" fill="url(#vitoBusinessBg)"/>
  
  <!-- Modern office buildings -->
  <rect x="0" y="80" width="180" height="370" fill="#2c3e50" opacity="0.6"/>
  <rect x="220" y="60" width="160" height="390" fill="#34495e" opacity="0.7"/>
  <rect x="420" y="100" width="140" height="350" fill="#2c3e50" opacity="0.6"/>
  <rect x="620" y="70" width="180" height="380" fill="#34495e" opacity="0.7"/>
  
  <!-- Office windows -->
  <rect x="20" y="120" width="30" height="40" fill="#ffffff" opacity="0.8"/>
  <rect x="70" y="120" width="30" height="40" fill="#ffffff" opacity="0.8"/>
  <rect x="120" y="120" width="30" height="40" fill="#ffffff" opacity="0.8"/>
  <rect x="240" y="100" width="25" height="35" fill="#00d4ff" opacity="0.7"/>
  <rect x="280" y="100" width="25" height="35" fill="#00d4ff" opacity="0.7"/>
  <rect x="320" y="100" width="25" height="35" fill="#00d4ff" opacity="0.7"/>
  
  <!-- Business Mercedes Vito -->
  <path d="M170 290 Q200 230 270 230 L530 230 Q610 230 640 290 L660 350 L620 380 L180 380 L140 350 Z" fill="#0a0a0a" stroke="#4a90e2" stroke-width="3"/>
  <path d="M190 240 Q220 210 300 210 L500 210 Q590 210 620 240 L610 290 L190 290 Z" fill="#2c3e50" opacity="0.8" stroke="#5dade2" stroke-width="2"/>
  
  <!-- Business professional chauffeur -->
  <rect x="300" y="200" width="45" height="65" fill="#2c3e50" rx="22"/>
  <circle cx="322" cy="190" r="16" fill="#34495e"/>
  
  <!-- Office building lighting -->
  <circle cx="200" cy="180" r="35" fill="url(#businessVitoLight)" opacity="0.5"/>
  
  <!-- Large Vito wheels -->
  <circle cx="250" cy="380" r="28" fill="#2c3e50" stroke="#7f8c8d" stroke-width="4"/>
  <circle cx="570" cy="380" r="28" fill="#2c3e50" stroke="#7f8c8d" stroke-width="4"/>
  <circle cx="250" cy="380" r="17" fill="#34495e"/>
  <circle cx="570" cy="380" r="17" fill="#34495e"/>
  
  <!-- Executive Vito headlights -->
  <ellipse cx="600" cy="270" rx="15" ry="8" fill="#00d4ff" opacity="0.9"/>
  <ellipse cx="220" cy="270" rx="12" ry="6" fill="#ff6b35" opacity="0.8"/>
  
  <!-- LED accent lighting -->
  <rect x="580" y="260" width="32" height="3" fill="#00d4ff" opacity="0.8"/>
  <rect x="210" y="260" width="26" height="3" fill="#ff6b35" opacity="0.8"/>
  
  <!-- Ground reflection -->
  <ellipse cx="400" cy="400" rx="300" ry="18" fill="#4a90e2" opacity="0.1"/>
  
  <!-- Business service elements -->
  <rect x="350" y="320" width="100" height="30" fill="#9b59b6" opacity="0.4" rx="6"/>
  <text x="400" y="340" font-family="Arial" font-size="12" fill="#ffffff" text-anchor="middle">EXECUTIVE</text>
  
  <!-- SEO Alt Text: Futuristic Mercedes Vito minivan business transfer with professional executive chauffeur and leather interior -->
</svg>