<svg width="800" height="450" viewBox="0 0 800 450" xmlns="http://www.w3.org/2000/svg">
  <defs>
    <linearGradient id="maybachBody" x1="0%" y1="0%" x2="100%" y2="0%">
      <stop offset="0%" style="stop-color:#0a0a0a;stop-opacity:1" />
      <stop offset="30%" style="stop-color:#1a1a2e;stop-opacity:1" />
      <stop offset="70%" style="stop-color:#16213e;stop-opacity:1" />
      <stop offset="100%" style="stop-color:#0f3460;stop-opacity:1" />
    </linearGradient>
    <radialGradient id="maybachStarlight" cx="50%" cy="25%" r="95%">
      <stop offset="0%" style="stop-color:#ffffff;stop-opacity:0.98" />
      <stop offset="15%" style="stop-color:#f39c12;stop-opacity:0.85" />
      <stop offset="30%" style="stop-color:#9b59b6;stop-opacity:0.7" />
      <stop offset="50%" style="stop-color:#8e44ad;stop-opacity:0.5" />
      <stop offset="75%" style="stop-color:#4a90e2;stop-opacity:0.3" />
      <stop offset="100%" style="stop-color:#2c3e50;stop-opacity:0.1" />
    </radialGradient>
    <filter id="maybachGlow">
      <feGaussianBlur stdDeviation="8" result="coloredBlur"/>
      <feMerge> 
        <feMergeNode in="coloredBlur"/>
        <feMergeNode in="SourceGraphic"/>
      </feMerge>
    </filter>
  </defs>
  
  <!-- Ultra-luxury background -->
  <rect width="800" height="450" fill="#000000"/>
  <rect x="0" y="330" width="800" height="120" fill="#0a0a0a"/>
  
  <!-- Galaxy starlight effect -->
  <circle cx="120" cy="60" r="2" fill="#ffffff" opacity="0.95"/>
  <circle cx="180" cy="45" r="1.5" fill="#f39c12" opacity="0.9"/>
  <circle cx="240" cy="70" r="2.5" fill="#9b59b6" opacity="0.85"/>
  <circle cx="300" cy="55" r="1" fill="#ffffff" opacity="0.92"/>
  <circle cx="360" cy="65" r="2" fill="#8e44ad" opacity="0.8"/>
  <circle cx="420" cy="40" r="1.5" fill="#ffffff" opacity="0.88"/>
  <circle cx="480" cy="75" r="2" fill="#4a90e2" opacity="0.75"/>
  <circle cx="540" cy="50" r="1.5" fill="#ffffff" opacity="0.91"/>
  <circle cx="600" cy="68" r="2.5" fill="#f39c12" opacity="0.87"/>
  <circle cx="660" cy="58" r="1" fill="#9b59b6" opacity="0.83"/>
  
  <!-- Premium ground reflection -->
  <ellipse cx="400" cy="410" rx="400" ry="30" fill="#f39c12" opacity="0.2"/>
  
  <!-- Mercedes Maybach ultra-luxury minivan body -->
  <path d="M100 290 Q130 200 220 200 L580 200 Q670 200 700 290 L720 360 L680 400 L120 400 L80 360 Z" fill="url(#maybachBody)" stroke="#f39c12" stroke-width="5" filter="url(#maybachGlow)"/>
  
  <!-- Extended Maybach windows with galaxy starlight -->
  <path d="M120 230 Q150 180 250 180 L550 180 Q650 180 680 230 L670 300 L130 300 Z" fill="url(#maybachStarlight)" stroke="#9b59b6" stroke-width="4"/>
  
  <!-- Ultra-premium LED headlights -->
  <ellipse cx="660" cy="260" rx="22" ry="14" fill="#ffffff" opacity="0.98" filter="url(#maybachGlow)"/>
  <ellipse cx="140" cy="260" rx="18" ry="11" fill="#f39c12" opacity="0.95"/>
  
  <!-- Maybach emblem -->
  <circle cx="400" cy="230" r="12" fill="#ffffff" opacity="0.95"/>
  <path d="M388 220 L412 220 M400 210 L400 230 M388 240 L412 240" stroke="#000000" stroke-width="4"/>
  
  <!-- Galaxy LED running lights -->
  <rect x="640" y="235" width="60" height="6" fill="#ffffff" opacity="0.9"/>
  <rect x="120" y="235" width="50" height="6" fill="#f39c12" opacity="0.8"/>
  
  <!-- Ultra-premium large wheels -->
  <circle cx="180" cy="400" r="35" fill="#2c3e50" stroke="#bdc3c7" stroke-width="6"/>
  <circle cx="620" cy="400" r="35" fill="#2c3e50" stroke="#bdc3c7" stroke-width="6"/>
  <circle cx="180" cy="400" r="21" fill="#34495e"/>
  <circle cx="620" cy="400" r="21" fill="#34495e"/>
  
  <!-- Chrome luxury accents -->
  <rect x="110" y="320" width="680" height="5" fill="#bdc3c7" opacity="0.95"/>
  <rect x="110" y="360" width="680" height="3" fill="#bdc3c7" opacity="0.85"/>
  
  <!-- Starlight side LED strips -->
  <rect x="130" y="340" width="640" height="3" fill="#9b59b6" opacity="0.8"/>
  <rect x="130" y="380" width="640" height="2" fill="#8e44ad" opacity="0.7"/>
  
  <!-- SEO Alt Text: Futuristic Mercedes Maybach ultra-luxury minivan exterior with galaxy starlight ceiling and premium chrome accents -->
</svg>