<svg width="800" height="450" viewBox="0 0 800 450" xmlns="http://www.w3.org/2000/svg">
  <defs>
    <linearGradient id="vipVitoNightBg" x1="0%" y1="0%" x2="0%" y2="100%">
      <stop offset="0%" style="stop-color:#0a0a0a;stop-opacity:1" />
      <stop offset="100%" style="stop-color:#1a1a2e;stop-opacity:1" />
    </linearGradient>
    <radialGradient id="nightVipVitoLight" cx="70%" cy="30%" r="40%">
      <stop offset="0%" style="stop-color:#ffffff;stop-opacity:0.9" />
      <stop offset="100%" style="stop-color:#9b59b6;stop-opacity:0.1" />
    </radialGradient>
    <radialGradient id="vipStarlightNight" cx="50%" cy="40%" r="90%">
      <stop offset="0%" style="stop-color:#ffffff;stop-opacity:0.95" />
      <stop offset="20%" style="stop-color:#9b59b6;stop-opacity:0.8" />
      <stop offset="40%" style="stop-color:#8e44ad;stop-opacity:0.6" />
      <stop offset="100%" style="stop-color:#4a90e2;stop-opacity:0.3" />
    </radialGradient>
  </defs>
  
  <!-- Futuristic VIP night city background -->
  <rect width="800" height="450" fill="url(#vipVitoNightBg)"/>
  
  <!-- City skyline -->
  <rect x="0" y="100" width="150" height="350" fill="#2c3e50" opacity="0.4"/>
  <rect x="200" y="80" width="120" height="370" fill="#34495e" opacity="0.5"/>
  <rect x="400" y="120" width="100" height="330" fill="#2c3e50" opacity="0.4"/>
  <rect x="600" y="60" width="140" height="390" fill="#34495e" opacity="0.5"/>
  
  <!-- Building lights -->
  <circle cx="50" cy="150" r="3" fill="#ffffff" opacity="0.8"/>
  <circle cx="100" cy="200" r="3" fill="#ffffff" opacity="0.8"/>
  <circle cx="250" cy="120" r="3" fill="#00d4ff" opacity="0.7"/>
  <circle cx="300" cy="180" r="3" fill="#00d4ff" opacity="0.7"/>
  <circle cx="450" cy="160" r="3" fill="#f39c12" opacity="0.7"/>
  <circle cx="650" cy="100" r="3" fill="#9b59b6" opacity="0.7"/>
  
  <!-- Futuristic Mercedes VIP Vito in night city -->
  <path d="M140 290 Q170 220 250 220 L550 220 Q640 220 670 290 L690 350 L650 400 L150 400 L110 350 Z" fill="#020202" stroke="#9b59b6" stroke-width="5"/>
  <path d="M160 230 Q190 180 300 180 L500 180 Q640 180 670 230 L660 290 L160 290 Z" fill="url(#vipStarlightNight)" stroke="#8e44ad" stroke-width="4"/>
  
  <!-- Professional VIP Vito night chauffeur -->
  <rect x="300" y="200" width="55" height="75" fill="#2c3e50" rx="27"/>
  <circle cx="327" cy="190" r="20" fill="#34495e"/>
  
  <!-- LED street lighting -->
  <circle cx="400" cy="200" r="65" fill="url(#nightVipVitoLight)" opacity="0.6"/>
  
  <!-- Large VIP Vito wheels -->
  <circle cx="230" cy="400" r="38" fill="#2c3e50" stroke="#7f8c8d" stroke-width="6"/>
  <circle cx="570" cy="400" r="38" fill="#2c3e50" stroke="#7f8c8d" stroke-width="6"/>
  <circle cx="230" cy="400" r="23" fill="#34495e"/>
  <circle cx="570" cy="400" r="23" fill="#34495e"/>
  
  <!-- Futuristic VIP Vito headlights -->
  <ellipse cx="630" cy="270" rx="20" ry="12" fill="#ffffff" opacity="0.95"/>
  <ellipse cx="200" cy="270" rx="16" ry="9" fill="#ff6b35" opacity="0.8"/>
  
  <!-- VIP starlight LED strips -->
  <rect x="610" y="260" width="45" height="6" fill="#ffffff" opacity="0.9"/>
  <rect x="185" y="260" width="35" height="6" fill="#ff6b35" opacity="0.8"/>
  
  <!-- Ground reflection -->
  <ellipse cx="400" cy="410" rx="350" ry="28" fill="#9b59b6" opacity="0.1"/>
  
  <!-- VIP night service elements -->
  <rect x="350" y="320" width="100" height="40" fill="#8e44ad" opacity="0.4" rx="8"/>
  <text x="400" y="350" font-family="Arial" font-size="16" fill="#ffffff" text-anchor="middle">VIP NIGHT</text>
  
  <!-- SEO Alt Text: Futuristic Mercedes VIP Vito minivan night city transfer with starlight ceiling and premium chauffeur -->
</svg>